<svg width="16" height="21" viewBox="0 0 16 21" fill="none" xmlns="http://www.w3.org/2000/svg">
<path d="M8 20.5202C8.52995 20.5186 9.03773 20.2963 9.41247 19.902C9.7872 19.5076 9.99842 18.9733 10 18.4156H6C6.00158 18.9733 6.2128 19.5076 6.58753 19.902C6.96227 20.2963 7.47005 20.5186 8 20.5202ZM14 14.2063V8.94472C14 5.7141 12.37 3.00963 9.5 2.29406V1.57848C9.5 1.15984 9.34196 0.758348 9.06066 0.462326C8.77936 0.166304 8.39782 0 8 0C7.60218 0 7.22064 0.166304 6.93934 0.462326C6.65804 0.758348 6.5 1.15984 6.5 1.57848V2.29406C3.64 3.00963 2 5.70357 2 8.94472V14.2063L0 16.311V17.3633H16V16.311L14 14.2063ZM12 15.2586H4V8.94472C4 6.33496 5.51 4.20928 8 4.20928C10.49 4.20928 12 6.33496 12 8.94472V15.2586Z" fill="white"/>
</svg>
